<?xml version="1.0" standalone="no"?><!DOCTYPE svg PUBLIC "-//W3C//DTD SVG 1.1//EN" "http://www.w3.org/Graphics/SVG/1.1/DTD/svg11.dtd">
<svg t="1576567713955" class="icon" viewBox="0 0 1024 1024" version="1.1" 
  xmlns="http://www.w3.org/2000/svg" p-id="2302" 
  xmlns:xlink="http://www.w3.org/1999/xlink" width="128" height="128">
  <defs>
    <style type="text/css"></style>
  </defs>
  <path d="M738.952529 1024h-575.272394a106.09234 106.09234 0 0 1-105.971231-105.97123v-696.382372a106.09234 106.09234 0 0 1 105.971231-105.971231h575.272394a106.09234 106.09234 0 0 1 105.97123 105.971231v696.382372a106.09234 106.09234 0 0 1-105.97123 105.97123z m-575.272394-832.631097a30.277494 30.277494 0 0 0-30.277495 30.277495v696.382372a30.277494 30.277494 0 0 0 30.277495 30.277494h575.272394a30.277494 30.277494 0 0 0 30.277494-30.277494v-696.382372a30.277494 30.277494 0 0 0-30.277494-30.277495z" p-id="2303"></path>
  <path d="M277.220739 433.588859h363.329933a37.846868 37.846868 0 0 0 0-75.693736h-363.329933a37.846868 37.846868 0 0 0 0 75.693736z" p-id="2304"></path>
  <path d="M640.550672 539.560089h-363.329933a37.846868 37.846868 0 0 0 0 75.693736h363.329933a37.846868 37.846868 0 0 0 0-75.693736z" p-id="2305"></path>
  <path d="M640.550672 721.225056h-363.329933a37.846868 37.846868 0 0 0 0 75.693736h363.329933a37.846868 37.846868 0 0 0 0-75.693736z" p-id="2306"></path>
  <path d="M845.181118 908.324833h15.138747a105.97123 105.97123 0 0 0 105.971231-105.971231v-696.382372a105.97123 105.97123 0 0 0-105.971231-105.97123h-575.272394a105.97123 105.97123 0 0 0-105.97123 105.97123v9.991574h75.693736v-9.991574a30.277494 30.277494 0 0 1 30.277494-30.277494h575.272394a30.277494 30.277494 0 0 1 30.277495 30.277494v696.382372a30.277494 30.277494 0 0 1-30.277495 30.277495h-15.744297" p-id="2307"></path>
</svg>