<?xml version="1.0" standalone="no"?><!DOCTYPE svg PUBLIC "-//W3C//DTD SVG 1.1//EN" "http://www.w3.org/Graphics/SVG/1.1/DTD/svg11.dtd"><svg t="1576637434526" class="icon" viewBox="0 0 1024 1024" version="1.1" xmlns="http://www.w3.org/2000/svg" p-id="1798" xmlns:xlink="http://www.w3.org/1999/xlink" width="128" height="128"><defs><style type="text/css"></style></defs><path d="M0 480h480V0H0v480zM64 64h352v352H64V64z"  p-id="1799"></path><path d="M160 160h160v160H160zM544 0v480h480V0H544z m416 416H608V64h352v352z"  p-id="1800"></path><path d="M704 160h160v160h-160zM0 1024h480V544H0v480z m64-416h352v352H64V608z"  p-id="1801"></path><path d="M160 704h160v160H160zM960 896h64v128h-64zM832 896h64v128h-64z"  p-id="1802"></path><path d="M896 768h-64v-224h-288v480h224v-128h-128v-192h64v128h320v-288h-128z"  p-id="1803"></path></svg>